<svg width="694" height="631" viewBox="0 0 694 631" fill="none" xmlns="http://www.w3.org/2000/svg">
<circle cx="325" cy="327" r="222" fill="#C2F1F5"/>
<g filter="url(#filter0_d_0_233)">
<rect x="475" y="84" width="125" height="146" rx="10" fill="white"/>
</g>
<path d="M539 132C547.837 132 555 124.837 555 116C555 107.163 547.837 100 539 100C530.163 100 523 107.163 523 116C523 124.837 530.163 132 539 132Z" fill="black" fill-opacity="0.2"/>
<circle cx="539" cy="116" r="16" fill="black" fill-opacity="0.2"/>
<path d="M483.444 156.812C483.444 155.996 483.632 155.264 484.008 154.616C484.392 153.968 484.908 153.464 485.556 153.104C486.212 152.736 486.928 152.552 487.704 152.552C488.592 152.552 489.38 152.772 490.068 153.212C490.764 153.644 491.268 154.26 491.58 155.06H489.936C489.72 154.62 489.42 154.292 489.036 154.076C488.652 153.86 488.208 153.752 487.704 153.752C487.152 153.752 486.66 153.876 486.228 154.124C485.796 154.372 485.456 154.728 485.208 155.192C484.968 155.656 484.848 156.196 484.848 156.812C484.848 157.428 484.968 157.968 485.208 158.432C485.456 158.896 485.796 159.256 486.228 159.512C486.66 159.76 487.152 159.884 487.704 159.884C488.208 159.884 488.652 159.776 489.036 159.56C489.42 159.344 489.72 159.016 489.936 158.576H491.58C491.268 159.376 490.764 159.992 490.068 160.424C489.38 160.856 488.592 161.072 487.704 161.072C486.92 161.072 486.204 160.892 485.556 160.532C484.908 160.164 484.392 159.656 484.008 159.008C483.632 158.36 483.444 157.628 483.444 156.812ZM496.049 161.108C495.425 161.108 494.861 160.968 494.357 160.688C493.853 160.4 493.457 160 493.169 159.488C492.881 158.968 492.737 158.368 492.737 157.688C492.737 157.016 492.885 156.42 493.181 155.9C493.477 155.38 493.881 154.98 494.393 154.7C494.905 154.42 495.477 154.28 496.109 154.28C496.741 154.28 497.313 154.42 497.825 154.7C498.337 154.98 498.741 155.38 499.037 155.9C499.333 156.42 499.481 157.016 499.481 157.688C499.481 158.36 499.329 158.956 499.025 159.476C498.721 159.996 498.305 160.4 497.777 160.688C497.257 160.968 496.681 161.108 496.049 161.108ZM496.049 159.92C496.401 159.92 496.729 159.836 497.033 159.668C497.345 159.5 497.597 159.248 497.789 158.912C497.981 158.576 498.077 158.168 498.077 157.688C498.077 157.208 497.985 156.804 497.801 156.476C497.617 156.14 497.373 155.888 497.069 155.72C496.765 155.552 496.437 155.468 496.085 155.468C495.733 155.468 495.405 155.552 495.101 155.72C494.805 155.888 494.569 156.14 494.393 156.476C494.217 156.804 494.129 157.208 494.129 157.688C494.129 158.4 494.309 158.952 494.669 159.344C495.037 159.728 495.497 159.92 496.049 159.92ZM504.17 154.28C504.69 154.28 505.154 154.388 505.562 154.604C505.978 154.82 506.302 155.14 506.534 155.564C506.766 155.988 506.882 156.5 506.882 157.1V161H505.526V157.304C505.526 156.712 505.378 156.26 505.082 155.948C504.786 155.628 504.382 155.468 503.87 155.468C503.358 155.468 502.95 155.628 502.646 155.948C502.35 156.26 502.202 156.712 502.202 157.304V161H500.834V154.388H502.202V155.144C502.426 154.872 502.71 154.66 503.054 154.508C503.406 154.356 503.778 154.28 504.17 154.28ZM511.963 154.28C512.483 154.28 512.947 154.388 513.355 154.604C513.771 154.82 514.095 155.14 514.327 155.564C514.559 155.988 514.675 156.5 514.675 157.1V161H513.319V157.304C513.319 156.712 513.171 156.26 512.875 155.948C512.579 155.628 512.175 155.468 511.663 155.468C511.151 155.468 510.743 155.628 510.439 155.948C510.143 156.26 509.995 156.712 509.995 157.304V161H508.627V154.388H509.995V155.144C510.219 154.872 510.503 154.66 510.847 154.508C511.199 154.356 511.571 154.28 511.963 154.28ZM522.48 157.532C522.48 157.78 522.464 158.004 522.432 158.204H517.38C517.42 158.732 517.616 159.156 517.968 159.476C518.32 159.796 518.752 159.956 519.264 159.956C520 159.956 520.52 159.648 520.824 159.032H522.3C522.1 159.64 521.736 160.14 521.208 160.532C520.688 160.916 520.04 161.108 519.264 161.108C518.632 161.108 518.064 160.968 517.56 160.688C517.064 160.4 516.672 160 516.384 159.488C516.104 158.968 515.964 158.368 515.964 157.688C515.964 157.008 516.1 156.412 516.372 155.9C516.652 155.38 517.04 154.98 517.536 154.7C518.04 154.42 518.616 154.28 519.264 154.28C519.888 154.28 520.444 154.416 520.932 154.688C521.42 154.96 521.8 155.344 522.072 155.84C522.344 156.328 522.48 156.892 522.48 157.532ZM521.052 157.1C521.044 156.596 520.864 156.192 520.512 155.888C520.16 155.584 519.724 155.432 519.204 155.432C518.732 155.432 518.328 155.584 517.992 155.888C517.656 156.184 517.456 156.588 517.392 157.1H521.052ZM523.37 157.688C523.37 157.008 523.506 156.412 523.778 155.9C524.058 155.38 524.442 154.98 524.93 154.7C525.418 154.42 525.978 154.28 526.61 154.28C527.41 154.28 528.07 154.472 528.59 154.856C529.118 155.232 529.474 155.772 529.658 156.476H528.182C528.062 156.148 527.87 155.892 527.606 155.708C527.342 155.524 527.01 155.432 526.61 155.432C526.05 155.432 525.602 155.632 525.266 156.032C524.938 156.424 524.774 156.976 524.774 157.688C524.774 158.4 524.938 158.956 525.266 159.356C525.602 159.756 526.05 159.956 526.61 159.956C527.402 159.956 527.926 159.608 528.182 158.912H529.658C529.466 159.584 529.106 160.12 528.578 160.52C528.05 160.912 527.394 161.108 526.61 161.108C525.978 161.108 525.418 160.968 524.93 160.688C524.442 160.4 524.058 160 523.778 159.488C523.506 158.968 523.37 158.368 523.37 157.688ZM532.617 155.504V159.164C532.617 159.412 532.673 159.592 532.785 159.704C532.905 159.808 533.105 159.86 533.385 159.86H534.225V161H533.145C532.529 161 532.057 160.856 531.729 160.568C531.401 160.28 531.237 159.812 531.237 159.164V155.504H530.457V154.388H531.237V152.744H532.617V154.388H534.225V155.504H532.617ZM541.546 157.532C541.546 157.78 541.53 158.004 541.498 158.204H536.446C536.486 158.732 536.682 159.156 537.034 159.476C537.386 159.796 537.818 159.956 538.33 159.956C539.066 159.956 539.586 159.648 539.89 159.032H541.366C541.166 159.64 540.802 160.14 540.274 160.532C539.754 160.916 539.106 161.108 538.33 161.108C537.698 161.108 537.13 160.968 536.626 160.688C536.13 160.4 535.738 160 535.45 159.488C535.17 158.968 535.03 158.368 535.03 157.688C535.03 157.008 535.166 156.412 535.438 155.9C535.718 155.38 536.106 154.98 536.602 154.7C537.106 154.42 537.682 154.28 538.33 154.28C538.954 154.28 539.51 154.416 539.998 154.688C540.486 154.96 540.866 155.344 541.138 155.84C541.41 156.328 541.546 156.892 541.546 157.532ZM540.118 157.1C540.11 156.596 539.93 156.192 539.578 155.888C539.226 155.584 538.79 155.432 538.27 155.432C537.798 155.432 537.394 155.584 537.058 155.888C536.722 156.184 536.522 156.588 536.458 157.1H540.118ZM542.436 157.664C542.436 157 542.572 156.412 542.844 155.9C543.124 155.388 543.5 154.992 543.972 154.712C544.452 154.424 544.984 154.28 545.568 154.28C546 154.28 546.424 154.376 546.84 154.568C547.264 154.752 547.6 155 547.848 155.312V152.12H549.228V161H547.848V160.004C547.624 160.324 547.312 160.588 546.912 160.796C546.52 161.004 546.068 161.108 545.556 161.108C544.98 161.108 544.452 160.964 543.972 160.676C543.5 160.38 543.124 159.972 542.844 159.452C542.572 158.924 542.436 158.328 542.436 157.664ZM547.848 157.688C547.848 157.232 547.752 156.836 547.56 156.5C547.376 156.164 547.132 155.908 546.828 155.732C546.524 155.556 546.196 155.468 545.844 155.468C545.492 155.468 545.164 155.556 544.86 155.732C544.556 155.9 544.308 156.152 544.116 156.488C543.932 156.816 543.84 157.208 543.84 157.664C543.84 158.12 543.932 158.52 544.116 158.864C544.308 159.208 544.556 159.472 544.86 159.656C545.172 159.832 545.5 159.92 545.844 159.92C546.196 159.92 546.524 159.832 546.828 159.656C547.132 159.48 547.376 159.224 547.56 158.888C547.752 158.544 547.848 158.144 547.848 157.688ZM556.89 161.084C556.33 161.084 555.826 160.988 555.378 160.796C554.93 160.596 554.578 160.316 554.322 159.956C554.066 159.596 553.938 159.176 553.938 158.696H555.402C555.434 159.056 555.574 159.352 555.822 159.584C556.078 159.816 556.434 159.932 556.89 159.932C557.362 159.932 557.73 159.82 557.994 159.596C558.258 159.364 558.39 159.068 558.39 158.708C558.39 158.428 558.306 158.2 558.138 158.024C557.978 157.848 557.774 157.712 557.526 157.616C557.286 157.52 556.95 157.416 556.518 157.304C555.974 157.16 555.53 157.016 555.186 156.872C554.85 156.72 554.562 156.488 554.322 156.176C554.082 155.864 553.962 155.448 553.962 154.928C553.962 154.448 554.082 154.028 554.322 153.668C554.562 153.308 554.898 153.032 555.33 152.84C555.762 152.648 556.262 152.552 556.83 152.552C557.638 152.552 558.298 152.756 558.81 153.164C559.33 153.564 559.618 154.116 559.674 154.82H558.162C558.138 154.516 557.994 154.256 557.73 154.04C557.466 153.824 557.118 153.716 556.686 153.716C556.294 153.716 555.974 153.816 555.726 154.016C555.478 154.216 555.354 154.504 555.354 154.88C555.354 155.136 555.43 155.348 555.582 155.516C555.742 155.676 555.942 155.804 556.182 155.9C556.422 155.996 556.75 156.1 557.166 156.212C557.718 156.364 558.166 156.516 558.51 156.668C558.862 156.82 559.158 157.056 559.398 157.376C559.646 157.688 559.77 158.108 559.77 158.636C559.77 159.06 559.654 159.46 559.422 159.836C559.198 160.212 558.866 160.516 558.426 160.748C557.994 160.972 557.482 161.084 556.89 161.084ZM567.444 157.532C567.444 157.78 567.428 158.004 567.396 158.204H562.344C562.384 158.732 562.58 159.156 562.932 159.476C563.284 159.796 563.716 159.956 564.228 159.956C564.964 159.956 565.484 159.648 565.788 159.032H567.264C567.064 159.64 566.7 160.14 566.172 160.532C565.652 160.916 565.004 161.108 564.228 161.108C563.596 161.108 563.028 160.968 562.524 160.688C562.028 160.4 561.636 160 561.348 159.488C561.068 158.968 560.928 158.368 560.928 157.688C560.928 157.008 561.064 156.412 561.336 155.9C561.616 155.38 562.004 154.98 562.5 154.7C563.004 154.42 563.58 154.28 564.228 154.28C564.852 154.28 565.408 154.416 565.896 154.688C566.384 154.96 566.764 155.344 567.036 155.84C567.308 156.328 567.444 156.892 567.444 157.532ZM566.016 157.1C566.008 156.596 565.828 156.192 565.476 155.888C565.124 155.584 564.688 155.432 564.168 155.432C563.696 155.432 563.292 155.584 562.956 155.888C562.62 156.184 562.42 156.588 562.356 157.1H566.016ZM570.159 155.348C570.359 155.012 570.623 154.752 570.951 154.568C571.287 154.376 571.683 154.28 572.139 154.28V155.696H571.791C571.255 155.696 570.847 155.832 570.567 156.104C570.295 156.376 570.159 156.848 570.159 157.52V161H568.791V154.388H570.159V155.348ZM575.952 159.776L577.824 154.388H579.276L576.756 161H575.124L572.616 154.388H574.08L575.952 159.776ZM586.37 157.532C586.37 157.78 586.354 158.004 586.322 158.204H581.27C581.31 158.732 581.506 159.156 581.858 159.476C582.21 159.796 582.642 159.956 583.154 159.956C583.89 159.956 584.41 159.648 584.714 159.032H586.19C585.99 159.64 585.626 160.14 585.098 160.532C584.578 160.916 583.93 161.108 583.154 161.108C582.522 161.108 581.954 160.968 581.45 160.688C580.954 160.4 580.562 160 580.274 159.488C579.994 158.968 579.854 158.368 579.854 157.688C579.854 157.008 579.99 156.412 580.262 155.9C580.542 155.38 580.93 154.98 581.426 154.7C581.93 154.42 582.506 154.28 583.154 154.28C583.778 154.28 584.334 154.416 584.822 154.688C585.31 154.96 585.69 155.344 585.962 155.84C586.234 156.328 586.37 156.892 586.37 157.532ZM584.942 157.1C584.934 156.596 584.754 156.192 584.402 155.888C584.05 155.584 583.614 155.432 583.094 155.432C582.622 155.432 582.218 155.584 581.882 155.888C581.546 156.184 581.346 156.588 581.282 157.1H584.942ZM589.084 155.348C589.284 155.012 589.548 154.752 589.876 154.568C590.212 154.376 590.608 154.28 591.064 154.28V155.696H590.716C590.18 155.696 589.772 155.832 589.492 156.104C589.22 156.376 589.084 156.848 589.084 157.52V161H587.716V154.388H589.084V155.348Z" fill="#0B1B36"/>
<rect x="490" y="182" width="95" height="32" rx="16" fill="#01A3C2"/>
<path d="M514.37 198.51C514.37 197.83 514.527 197.22 514.84 196.68C515.16 196.14 515.59 195.72 516.13 195.42C516.677 195.113 517.273 194.96 517.92 194.96C518.66 194.96 519.317 195.143 519.89 195.51C520.47 195.87 520.89 196.383 521.15 197.05H519.78C519.6 196.683 519.35 196.41 519.03 196.23C518.71 196.05 518.34 195.96 517.92 195.96C517.46 195.96 517.05 196.063 516.69 196.27C516.33 196.477 516.047 196.773 515.84 197.16C515.64 197.547 515.54 197.997 515.54 198.51C515.54 199.023 515.64 199.473 515.84 199.86C516.047 200.247 516.33 200.547 516.69 200.76C517.05 200.967 517.46 201.07 517.92 201.07C518.34 201.07 518.71 200.98 519.03 200.8C519.35 200.62 519.6 200.347 519.78 199.98H521.15C520.89 200.647 520.47 201.16 519.89 201.52C519.317 201.88 518.66 202.06 517.92 202.06C517.267 202.06 516.67 201.91 516.13 201.61C515.59 201.303 515.16 200.88 514.84 200.34C514.527 199.8 514.37 199.19 514.37 198.51ZM524.874 202.09C524.354 202.09 523.884 201.973 523.464 201.74C523.044 201.5 522.714 201.167 522.474 200.74C522.234 200.307 522.114 199.807 522.114 199.24C522.114 198.68 522.238 198.183 522.484 197.75C522.731 197.317 523.068 196.983 523.494 196.75C523.921 196.517 524.398 196.4 524.924 196.4C525.451 196.4 525.928 196.517 526.354 196.75C526.781 196.983 527.118 197.317 527.364 197.75C527.611 198.183 527.734 198.68 527.734 199.24C527.734 199.8 527.608 200.297 527.354 200.73C527.101 201.163 526.754 201.5 526.314 201.74C525.881 201.973 525.401 202.09 524.874 202.09ZM524.874 201.1C525.168 201.1 525.441 201.03 525.694 200.89C525.954 200.75 526.164 200.54 526.324 200.26C526.484 199.98 526.564 199.64 526.564 199.24C526.564 198.84 526.488 198.503 526.334 198.23C526.181 197.95 525.978 197.74 525.724 197.6C525.471 197.46 525.198 197.39 524.904 197.39C524.611 197.39 524.338 197.46 524.084 197.6C523.838 197.74 523.641 197.95 523.494 198.23C523.348 198.503 523.274 198.84 523.274 199.24C523.274 199.833 523.424 200.293 523.724 200.62C524.031 200.94 524.414 201.1 524.874 201.1ZM531.641 196.4C532.075 196.4 532.461 196.49 532.801 196.67C533.148 196.85 533.418 197.117 533.611 197.47C533.805 197.823 533.901 198.25 533.901 198.75V202H532.771V198.92C532.771 198.427 532.648 198.05 532.401 197.79C532.155 197.523 531.818 197.39 531.391 197.39C530.965 197.39 530.625 197.523 530.371 197.79C530.125 198.05 530.001 198.427 530.001 198.92V202H528.861V196.49H530.001V197.12C530.188 196.893 530.425 196.717 530.711 196.59C531.005 196.463 531.315 196.4 531.641 196.4ZM536.685 197.42V200.47C536.685 200.677 536.732 200.827 536.825 200.92C536.925 201.007 537.092 201.05 537.325 201.05H538.025V202H537.125C536.612 202 536.219 201.88 535.945 201.64C535.672 201.4 535.535 201.01 535.535 200.47V197.42H534.885V196.49H535.535V195.12H536.685V196.49H538.025V197.42H536.685ZM539.656 195.76C539.45 195.76 539.276 195.69 539.136 195.55C538.996 195.41 538.926 195.237 538.926 195.03C538.926 194.823 538.996 194.65 539.136 194.51C539.276 194.37 539.45 194.3 539.656 194.3C539.856 194.3 540.026 194.37 540.166 194.51C540.306 194.65 540.376 194.823 540.376 195.03C540.376 195.237 540.306 195.41 540.166 195.55C540.026 195.69 539.856 195.76 539.656 195.76ZM540.216 196.49V202H539.076V196.49H540.216ZM544.493 196.4C544.926 196.4 545.313 196.49 545.653 196.67C546 196.85 546.27 197.117 546.463 197.47C546.656 197.823 546.753 198.25 546.753 198.75V202H545.623V198.92C545.623 198.427 545.5 198.05 545.253 197.79C545.006 197.523 544.67 197.39 544.243 197.39C543.816 197.39 543.476 197.523 543.223 197.79C542.976 198.05 542.853 198.427 542.853 198.92V202H541.713V196.49H542.853V197.12C543.04 196.893 543.276 196.717 543.563 196.59C543.856 196.463 544.166 196.4 544.493 196.4ZM553.197 196.49V202H552.057V201.35C551.877 201.577 551.64 201.757 551.347 201.89C551.06 202.017 550.754 202.08 550.427 202.08C549.994 202.08 549.604 201.99 549.257 201.81C548.917 201.63 548.647 201.363 548.447 201.01C548.254 200.657 548.157 200.23 548.157 199.73V196.49H549.287V199.56C549.287 200.053 549.41 200.433 549.657 200.7C549.904 200.96 550.24 201.09 550.667 201.09C551.094 201.09 551.43 200.96 551.677 200.7C551.93 200.433 552.057 200.053 552.057 199.56V196.49H553.197ZM559.751 199.11C559.751 199.317 559.738 199.503 559.711 199.67H555.501C555.535 200.11 555.698 200.463 555.991 200.73C556.285 200.997 556.645 201.13 557.071 201.13C557.685 201.13 558.118 200.873 558.371 200.36H559.601C559.435 200.867 559.131 201.283 558.691 201.61C558.258 201.93 557.718 202.09 557.071 202.09C556.545 202.09 556.071 201.973 555.651 201.74C555.238 201.5 554.911 201.167 554.671 200.74C554.438 200.307 554.321 199.807 554.321 199.24C554.321 198.673 554.435 198.177 554.661 197.75C554.895 197.317 555.218 196.983 555.631 196.75C556.051 196.517 556.531 196.4 557.071 196.4C557.591 196.4 558.055 196.513 558.461 196.74C558.868 196.967 559.185 197.287 559.411 197.7C559.638 198.107 559.751 198.577 559.751 199.11ZM558.561 198.75C558.555 198.33 558.405 197.993 558.111 197.74C557.818 197.487 557.455 197.36 557.021 197.36C556.628 197.36 556.291 197.487 556.011 197.74C555.731 197.987 555.565 198.323 555.511 198.75H558.561Z" fill="white"/>
<g filter="url(#filter1_d_0_233)">
<rect x="94" y="437" width="123" height="154" rx="10" fill="white"/>
</g>
<path d="M156 485C164.837 485 172 477.837 172 469C172 460.163 164.837 453 156 453C147.163 453 140 460.163 140 469C140 477.837 147.163 485 156 485Z" fill="#CCCCCC"/>
<circle cx="156" cy="469" r="16" fill="black" fill-opacity="0.2"/>
<path d="M133.936 500.06C133.72 499.644 133.42 499.332 133.036 499.124C132.652 498.908 132.208 498.8 131.704 498.8C131.152 498.8 130.66 498.924 130.228 499.172C129.796 499.42 129.456 499.772 129.208 500.228C128.968 500.684 128.848 501.212 128.848 501.812C128.848 502.412 128.968 502.944 129.208 503.408C129.456 503.864 129.796 504.216 130.228 504.464C130.66 504.712 131.152 504.836 131.704 504.836C132.448 504.836 133.052 504.628 133.516 504.212C133.98 503.796 134.264 503.232 134.368 502.52H131.236V501.428H135.832V502.496C135.744 503.144 135.512 503.74 135.136 504.284C134.768 504.828 134.284 505.264 133.684 505.592C133.092 505.912 132.432 506.072 131.704 506.072C130.92 506.072 130.204 505.892 129.556 505.532C128.908 505.164 128.392 504.656 128.008 504.008C127.632 503.36 127.444 502.628 127.444 501.812C127.444 500.996 127.632 500.264 128.008 499.616C128.392 498.968 128.908 498.464 129.556 498.104C130.212 497.736 130.928 497.552 131.704 497.552C132.592 497.552 133.38 497.772 134.068 498.212C134.764 498.644 135.268 499.26 135.58 500.06H133.936ZM143.241 502.532C143.241 502.78 143.225 503.004 143.193 503.204H138.141C138.181 503.732 138.377 504.156 138.729 504.476C139.081 504.796 139.513 504.956 140.025 504.956C140.761 504.956 141.281 504.648 141.585 504.032H143.061C142.861 504.64 142.497 505.14 141.969 505.532C141.449 505.916 140.801 506.108 140.025 506.108C139.393 506.108 138.825 505.968 138.321 505.688C137.825 505.4 137.433 505 137.145 504.488C136.865 503.968 136.725 503.368 136.725 502.688C136.725 502.008 136.861 501.412 137.133 500.9C137.413 500.38 137.801 499.98 138.297 499.7C138.801 499.42 139.377 499.28 140.025 499.28C140.649 499.28 141.205 499.416 141.693 499.688C142.181 499.96 142.561 500.344 142.833 500.84C143.105 501.328 143.241 501.892 143.241 502.532ZM141.813 502.1C141.805 501.596 141.625 501.192 141.273 500.888C140.921 500.584 140.485 500.432 139.965 500.432C139.493 500.432 139.089 500.584 138.753 500.888C138.417 501.184 138.217 501.588 138.153 502.1H141.813ZM145.956 500.348C146.156 500.012 146.42 499.752 146.748 499.568C147.084 499.376 147.48 499.28 147.936 499.28V500.696H147.588C147.052 500.696 146.644 500.832 146.364 501.104C146.092 501.376 145.956 501.848 145.956 502.52V506H144.588V499.388H145.956V500.348ZM157.197 499.28C157.717 499.28 158.181 499.388 158.589 499.604C159.005 499.82 159.329 500.14 159.561 500.564C159.801 500.988 159.921 501.5 159.921 502.1V506H158.565V502.304C158.565 501.712 158.417 501.26 158.121 500.948C157.825 500.628 157.421 500.468 156.909 500.468C156.397 500.468 155.989 500.628 155.685 500.948C155.389 501.26 155.241 501.712 155.241 502.304V506H153.885V502.304C153.885 501.712 153.737 501.26 153.441 500.948C153.145 500.628 152.741 500.468 152.229 500.468C151.717 500.468 151.309 500.628 151.005 500.948C150.709 501.26 150.561 501.712 150.561 502.304V506H149.193V499.388H150.561V500.144C150.785 499.872 151.069 499.66 151.413 499.508C151.757 499.356 152.125 499.28 152.517 499.28C153.045 499.28 153.517 499.392 153.933 499.616C154.349 499.84 154.669 500.164 154.893 500.588C155.093 500.188 155.405 499.872 155.829 499.64C156.253 499.4 156.709 499.28 157.197 499.28ZM161.206 502.664C161.206 502 161.342 501.412 161.614 500.9C161.894 500.388 162.27 499.992 162.742 499.712C163.222 499.424 163.75 499.28 164.326 499.28C164.846 499.28 165.298 499.384 165.682 499.592C166.074 499.792 166.386 500.044 166.618 500.348V499.388H167.998V506H166.618V505.016C166.386 505.328 166.07 505.588 165.67 505.796C165.27 506.004 164.814 506.108 164.302 506.108C163.734 506.108 163.214 505.964 162.742 505.676C162.27 505.38 161.894 504.972 161.614 504.452C161.342 503.924 161.206 503.328 161.206 502.664ZM166.618 502.688C166.618 502.232 166.522 501.836 166.33 501.5C166.146 501.164 165.902 500.908 165.598 500.732C165.294 500.556 164.966 500.468 164.614 500.468C164.262 500.468 163.934 500.556 163.63 500.732C163.326 500.9 163.078 501.152 162.886 501.488C162.702 501.816 162.61 502.208 162.61 502.664C162.61 503.12 162.702 503.52 162.886 503.864C163.078 504.208 163.326 504.472 163.63 504.656C163.942 504.832 164.27 504.92 164.614 504.92C164.966 504.92 165.294 504.832 165.598 504.656C165.902 504.48 166.146 504.224 166.33 503.888C166.522 503.544 166.618 503.144 166.618 502.688ZM173.131 499.28C173.651 499.28 174.115 499.388 174.523 499.604C174.939 499.82 175.263 500.14 175.495 500.564C175.727 500.988 175.843 501.5 175.843 502.1V506H174.487V502.304C174.487 501.712 174.339 501.26 174.043 500.948C173.747 500.628 173.343 500.468 172.831 500.468C172.319 500.468 171.911 500.628 171.607 500.948C171.311 501.26 171.163 501.712 171.163 502.304V506H169.795V499.388H171.163V500.144C171.387 499.872 171.671 499.66 172.015 499.508C172.367 499.356 172.739 499.28 173.131 499.28ZM183.54 499.388L179.484 509.108H178.068L179.412 505.892L176.808 499.388H178.332L180.192 504.428L182.124 499.388H183.54Z" fill="#0B1B36"/>
<path d="M124.384 524.056C124.016 524.056 123.685 523.992 123.392 523.864C123.104 523.731 122.877 523.549 122.712 523.32C122.547 523.085 122.461 522.816 122.456 522.512H123.232C123.259 522.773 123.365 522.995 123.552 523.176C123.744 523.352 124.021 523.44 124.384 523.44C124.731 523.44 125.003 523.355 125.2 523.184C125.403 523.008 125.504 522.784 125.504 522.512C125.504 522.299 125.445 522.125 125.328 521.992C125.211 521.859 125.064 521.757 124.888 521.688C124.712 521.619 124.475 521.544 124.176 521.464C123.808 521.368 123.512 521.272 123.288 521.176C123.069 521.08 122.88 520.931 122.72 520.728C122.565 520.52 122.488 520.243 122.488 519.896C122.488 519.592 122.565 519.323 122.72 519.088C122.875 518.853 123.091 518.672 123.368 518.544C123.651 518.416 123.973 518.352 124.336 518.352C124.859 518.352 125.285 518.483 125.616 518.744C125.952 519.005 126.141 519.352 126.184 519.784H125.384C125.357 519.571 125.245 519.384 125.048 519.224C124.851 519.059 124.589 518.976 124.264 518.976C123.96 518.976 123.712 519.056 123.52 519.216C123.328 519.371 123.232 519.589 123.232 519.872C123.232 520.075 123.288 520.24 123.4 520.368C123.517 520.496 123.659 520.595 123.824 520.664C123.995 520.728 124.232 520.803 124.536 520.888C124.904 520.989 125.2 521.091 125.424 521.192C125.648 521.288 125.84 521.44 126 521.648C126.16 521.851 126.24 522.128 126.24 522.48C126.24 522.752 126.168 523.008 126.024 523.248C125.88 523.488 125.667 523.683 125.384 523.832C125.101 523.981 124.768 524.056 124.384 524.056ZM128.199 520.216V522.8C128.199 523.013 128.245 523.165 128.335 523.256C128.426 523.341 128.583 523.384 128.807 523.384H129.343V524H128.687C128.282 524 127.978 523.907 127.775 523.72C127.573 523.533 127.471 523.227 127.471 522.8V520.216H126.903V519.616H127.471V518.512H128.199V519.616H129.343V520.216H128.199ZM130.953 520.328C131.081 520.077 131.263 519.883 131.497 519.744C131.737 519.605 132.028 519.536 132.369 519.536V520.288H132.177C131.361 520.288 130.953 520.731 130.953 521.616V524H130.225V519.616H130.953V520.328ZM137.21 521.64C137.21 521.779 137.202 521.925 137.186 522.08H133.682C133.708 522.512 133.855 522.851 134.122 523.096C134.394 523.336 134.722 523.456 135.106 523.456C135.42 523.456 135.682 523.384 135.89 523.24C136.103 523.091 136.252 522.893 136.338 522.648H137.122C137.004 523.069 136.77 523.413 136.418 523.68C136.066 523.941 135.628 524.072 135.106 524.072C134.69 524.072 134.316 523.979 133.986 523.792C133.66 523.605 133.404 523.341 133.218 523C133.031 522.653 132.938 522.253 132.938 521.8C132.938 521.347 133.028 520.949 133.21 520.608C133.391 520.267 133.644 520.005 133.97 519.824C134.3 519.637 134.679 519.544 135.106 519.544C135.522 519.544 135.89 519.635 136.21 519.816C136.53 519.997 136.775 520.248 136.946 520.568C137.122 520.883 137.21 521.24 137.21 521.64ZM136.458 521.488C136.458 521.211 136.396 520.973 136.274 520.776C136.151 520.573 135.983 520.421 135.77 520.32C135.562 520.213 135.33 520.16 135.074 520.16C134.706 520.16 134.391 520.277 134.13 520.512C133.874 520.747 133.727 521.072 133.69 521.488H136.458ZM137.899 521.792C137.899 521.344 137.989 520.952 138.171 520.616C138.352 520.275 138.6 520.011 138.915 519.824C139.235 519.637 139.589 519.544 139.979 519.544C140.363 519.544 140.696 519.627 140.979 519.792C141.261 519.957 141.472 520.165 141.611 520.416V519.616H142.347V524H141.611V523.184C141.467 523.44 141.251 523.653 140.963 523.824C140.68 523.989 140.349 524.072 139.971 524.072C139.581 524.072 139.229 523.976 138.915 523.784C138.6 523.592 138.352 523.323 138.171 522.976C137.989 522.629 137.899 522.235 137.899 521.792ZM141.611 521.8C141.611 521.469 141.544 521.181 141.411 520.936C141.277 520.691 141.096 520.504 140.867 520.376C140.643 520.243 140.395 520.176 140.123 520.176C139.851 520.176 139.603 520.24 139.379 520.368C139.155 520.496 138.976 520.683 138.843 520.928C138.709 521.173 138.643 521.461 138.643 521.792C138.643 522.128 138.709 522.421 138.843 522.672C138.976 522.917 139.155 523.107 139.379 523.24C139.603 523.368 139.851 523.432 140.123 523.432C140.395 523.432 140.643 523.368 140.867 523.24C141.096 523.107 141.277 522.917 141.411 522.672C141.544 522.421 141.611 522.131 141.611 521.8ZM148.849 519.536C149.19 519.536 149.494 519.608 149.761 519.752C150.028 519.891 150.238 520.101 150.393 520.384C150.548 520.667 150.625 521.011 150.625 521.416V524H149.905V521.52C149.905 521.083 149.796 520.749 149.577 520.52C149.364 520.285 149.073 520.168 148.705 520.168C148.326 520.168 148.025 520.291 147.801 520.536C147.577 520.776 147.465 521.125 147.465 521.584V524H146.745V521.52C146.745 521.083 146.636 520.749 146.417 520.52C146.204 520.285 145.913 520.168 145.545 520.168C145.166 520.168 144.865 520.291 144.641 520.536C144.417 520.776 144.305 521.125 144.305 521.584V524H143.577V519.616H144.305V520.248C144.449 520.019 144.641 519.843 144.881 519.72C145.126 519.597 145.396 519.536 145.689 519.536C146.057 519.536 146.382 519.619 146.665 519.784C146.948 519.949 147.158 520.192 147.297 520.512C147.42 520.203 147.622 519.963 147.905 519.792C148.188 519.621 148.502 519.536 148.849 519.536ZM152.195 518.904C152.056 518.904 151.939 518.856 151.843 518.76C151.747 518.664 151.699 518.547 151.699 518.408C151.699 518.269 151.747 518.152 151.843 518.056C151.939 517.96 152.056 517.912 152.195 517.912C152.328 517.912 152.44 517.96 152.531 518.056C152.627 518.152 152.675 518.269 152.675 518.408C152.675 518.547 152.627 518.664 152.531 518.76C152.44 518.856 152.328 518.904 152.195 518.904ZM152.547 519.616V524H151.819V519.616H152.547ZM155.924 519.536C156.457 519.536 156.889 519.699 157.22 520.024C157.551 520.344 157.716 520.808 157.716 521.416V524H156.996V521.52C156.996 521.083 156.887 520.749 156.668 520.52C156.449 520.285 156.151 520.168 155.772 520.168C155.388 520.168 155.081 520.288 154.852 520.528C154.628 520.768 154.516 521.117 154.516 521.576V524H153.788V519.616H154.516V520.24C154.66 520.016 154.855 519.843 155.1 519.72C155.351 519.597 155.625 519.536 155.924 519.536ZM160.713 519.544C161.092 519.544 161.422 519.627 161.705 519.792C161.993 519.957 162.206 520.165 162.345 520.416V519.616H163.081V524.096C163.081 524.496 162.996 524.851 162.825 525.16C162.654 525.475 162.409 525.72 162.089 525.896C161.774 526.072 161.406 526.16 160.985 526.16C160.409 526.16 159.929 526.024 159.545 525.752C159.161 525.48 158.934 525.109 158.865 524.64H159.585C159.665 524.907 159.83 525.12 160.081 525.28C160.332 525.445 160.633 525.528 160.985 525.528C161.385 525.528 161.71 525.403 161.961 525.152C162.217 524.901 162.345 524.549 162.345 524.096V523.176C162.201 523.432 161.988 523.645 161.705 523.816C161.422 523.987 161.092 524.072 160.713 524.072C160.324 524.072 159.969 523.976 159.649 523.784C159.334 523.592 159.086 523.323 158.905 522.976C158.724 522.629 158.633 522.235 158.633 521.792C158.633 521.344 158.724 520.952 158.905 520.616C159.086 520.275 159.334 520.011 159.649 519.824C159.969 519.637 160.324 519.544 160.713 519.544ZM162.345 521.8C162.345 521.469 162.278 521.181 162.145 520.936C162.012 520.691 161.83 520.504 161.601 520.376C161.377 520.243 161.129 520.176 160.857 520.176C160.585 520.176 160.337 520.24 160.113 520.368C159.889 520.496 159.71 520.683 159.577 520.928C159.444 521.173 159.377 521.461 159.377 521.792C159.377 522.128 159.444 522.421 159.577 522.672C159.71 522.917 159.889 523.107 160.113 523.24C160.337 523.368 160.585 523.432 160.857 523.432C161.129 523.432 161.377 523.368 161.601 523.24C161.83 523.107 162.012 522.917 162.145 522.672C162.278 522.421 162.345 522.131 162.345 521.8ZM168.356 524.072C167.945 524.072 167.572 523.979 167.236 523.792C166.905 523.605 166.644 523.341 166.452 523C166.265 522.653 166.172 522.253 166.172 521.8C166.172 521.352 166.268 520.957 166.46 520.616C166.657 520.269 166.924 520.005 167.26 519.824C167.596 519.637 167.972 519.544 168.388 519.544C168.804 519.544 169.18 519.637 169.516 519.824C169.852 520.005 170.116 520.267 170.308 520.608C170.505 520.949 170.604 521.347 170.604 521.8C170.604 522.253 170.503 522.653 170.3 523C170.103 523.341 169.833 523.605 169.492 523.792C169.151 523.979 168.772 524.072 168.356 524.072ZM168.356 523.432C168.617 523.432 168.863 523.371 169.092 523.248C169.321 523.125 169.505 522.941 169.644 522.696C169.788 522.451 169.86 522.152 169.86 521.8C169.86 521.448 169.791 521.149 169.652 520.904C169.513 520.659 169.332 520.477 169.108 520.36C168.884 520.237 168.641 520.176 168.38 520.176C168.113 520.176 167.868 520.237 167.644 520.36C167.425 520.477 167.249 520.659 167.116 520.904C166.983 521.149 166.916 521.448 166.916 521.8C166.916 522.157 166.98 522.459 167.108 522.704C167.241 522.949 167.417 523.133 167.636 523.256C167.855 523.373 168.095 523.432 168.356 523.432ZM173.697 519.536C174.231 519.536 174.663 519.699 174.993 520.024C175.324 520.344 175.489 520.808 175.489 521.416V524H174.769V521.52C174.769 521.083 174.66 520.749 174.441 520.52C174.223 520.285 173.924 520.168 173.545 520.168C173.161 520.168 172.855 520.288 172.625 520.528C172.401 520.768 172.289 521.117 172.289 521.576V524H171.561V519.616H172.289V520.24C172.433 520.016 172.628 519.843 172.873 519.72C173.124 519.597 173.399 519.536 173.697 519.536ZM177.407 518.08V524H176.679V518.08H177.407ZM179.023 518.904C178.885 518.904 178.767 518.856 178.671 518.76C178.575 518.664 178.527 518.547 178.527 518.408C178.527 518.269 178.575 518.152 178.671 518.056C178.767 517.96 178.885 517.912 179.023 517.912C179.157 517.912 179.269 517.96 179.359 518.056C179.455 518.152 179.503 518.269 179.503 518.408C179.503 518.547 179.455 518.664 179.359 518.76C179.269 518.856 179.157 518.904 179.023 518.904ZM179.375 519.616V524H178.647V519.616H179.375ZM182.752 519.536C183.285 519.536 183.717 519.699 184.048 520.024C184.379 520.344 184.544 520.808 184.544 521.416V524H183.824V521.52C183.824 521.083 183.715 520.749 183.496 520.52C183.277 520.285 182.979 520.168 182.6 520.168C182.216 520.168 181.909 520.288 181.68 520.528C181.456 520.768 181.344 521.117 181.344 521.576V524H180.616V519.616H181.344V520.24C181.488 520.016 181.683 519.843 181.928 519.72C182.179 519.597 182.453 519.536 182.752 519.536ZM189.733 521.64C189.733 521.779 189.725 521.925 189.709 522.08H186.205C186.232 522.512 186.379 522.851 186.645 523.096C186.917 523.336 187.245 523.456 187.629 523.456C187.944 523.456 188.205 523.384 188.413 523.24C188.627 523.091 188.776 522.893 188.861 522.648H189.645C189.528 523.069 189.293 523.413 188.941 523.68C188.589 523.941 188.152 524.072 187.629 524.072C187.213 524.072 186.84 523.979 186.509 523.792C186.184 523.605 185.928 523.341 185.741 523C185.555 522.653 185.461 522.253 185.461 521.8C185.461 521.347 185.552 520.949 185.733 520.608C185.915 520.267 186.168 520.005 186.493 519.824C186.824 519.637 187.203 519.544 187.629 519.544C188.045 519.544 188.413 519.635 188.733 519.816C189.053 519.997 189.299 520.248 189.469 520.568C189.645 520.883 189.733 521.24 189.733 521.64ZM188.981 521.488C188.981 521.211 188.92 520.973 188.797 520.776C188.675 520.573 188.507 520.421 188.293 520.32C188.085 520.213 187.853 520.16 187.597 520.16C187.229 520.16 186.915 520.277 186.653 520.512C186.397 520.747 186.251 521.072 186.213 521.488H188.981Z" fill="#0B1B36" fill-opacity="0.6"/>
<rect x="110" y="543" width="91" height="32" rx="16" fill="#01A3C2"/>
<path d="M134.37 559.51C134.37 558.83 134.527 558.22 134.84 557.68C135.16 557.14 135.59 556.72 136.13 556.42C136.677 556.113 137.273 555.96 137.92 555.96C138.66 555.96 139.317 556.143 139.89 556.51C140.47 556.87 140.89 557.383 141.15 558.05H139.78C139.6 557.683 139.35 557.41 139.03 557.23C138.71 557.05 138.34 556.96 137.92 556.96C137.46 556.96 137.05 557.063 136.69 557.27C136.33 557.477 136.047 557.773 135.84 558.16C135.64 558.547 135.54 558.997 135.54 559.51C135.54 560.023 135.64 560.473 135.84 560.86C136.047 561.247 136.33 561.547 136.69 561.76C137.05 561.967 137.46 562.07 137.92 562.07C138.34 562.07 138.71 561.98 139.03 561.8C139.35 561.62 139.6 561.347 139.78 560.98H141.15C140.89 561.647 140.47 562.16 139.89 562.52C139.317 562.88 138.66 563.06 137.92 563.06C137.267 563.06 136.67 562.91 136.13 562.61C135.59 562.303 135.16 561.88 134.84 561.34C134.527 560.8 134.37 560.19 134.37 559.51ZM144.874 563.09C144.354 563.09 143.884 562.973 143.464 562.74C143.044 562.5 142.714 562.167 142.474 561.74C142.234 561.307 142.114 560.807 142.114 560.24C142.114 559.68 142.238 559.183 142.484 558.75C142.731 558.317 143.068 557.983 143.494 557.75C143.921 557.517 144.398 557.4 144.924 557.4C145.451 557.4 145.928 557.517 146.354 557.75C146.781 557.983 147.118 558.317 147.364 558.75C147.611 559.183 147.734 559.68 147.734 560.24C147.734 560.8 147.608 561.297 147.354 561.73C147.101 562.163 146.754 562.5 146.314 562.74C145.881 562.973 145.401 563.09 144.874 563.09ZM144.874 562.1C145.168 562.1 145.441 562.03 145.694 561.89C145.954 561.75 146.164 561.54 146.324 561.26C146.484 560.98 146.564 560.64 146.564 560.24C146.564 559.84 146.488 559.503 146.334 559.23C146.181 558.95 145.978 558.74 145.724 558.6C145.471 558.46 145.198 558.39 144.904 558.39C144.611 558.39 144.338 558.46 144.084 558.6C143.838 558.74 143.641 558.95 143.494 559.23C143.348 559.503 143.274 559.84 143.274 560.24C143.274 560.833 143.424 561.293 143.724 561.62C144.031 561.94 144.414 562.1 144.874 562.1ZM151.641 557.4C152.075 557.4 152.461 557.49 152.801 557.67C153.148 557.85 153.418 558.117 153.611 558.47C153.805 558.823 153.901 559.25 153.901 559.75V563H152.771V559.92C152.771 559.427 152.648 559.05 152.401 558.79C152.155 558.523 151.818 558.39 151.391 558.39C150.965 558.39 150.625 558.523 150.371 558.79C150.125 559.05 150.001 559.427 150.001 559.92V563H148.861V557.49H150.001V558.12C150.188 557.893 150.425 557.717 150.711 557.59C151.005 557.463 151.315 557.4 151.641 557.4ZM158.135 557.4C158.569 557.4 158.955 557.49 159.295 557.67C159.642 557.85 159.912 558.117 160.105 558.47C160.299 558.823 160.395 559.25 160.395 559.75V563H159.265V559.92C159.265 559.427 159.142 559.05 158.895 558.79C158.649 558.523 158.312 558.39 157.885 558.39C157.459 558.39 157.119 558.523 156.865 558.79C156.619 559.05 156.495 559.427 156.495 559.92V563H155.355V557.49H156.495V558.12C156.682 557.893 156.919 557.717 157.205 557.59C157.499 557.463 157.809 557.4 158.135 557.4ZM166.9 560.11C166.9 560.317 166.886 560.503 166.86 560.67H162.65C162.683 561.11 162.846 561.463 163.14 561.73C163.433 561.997 163.793 562.13 164.22 562.13C164.833 562.13 165.266 561.873 165.52 561.36H166.75C166.583 561.867 166.28 562.283 165.84 562.61C165.406 562.93 164.866 563.09 164.22 563.09C163.693 563.09 163.22 562.973 162.8 562.74C162.386 562.5 162.06 562.167 161.82 561.74C161.586 561.307 161.47 560.807 161.47 560.24C161.47 559.673 161.583 559.177 161.81 558.75C162.043 558.317 162.366 557.983 162.78 557.75C163.2 557.517 163.68 557.4 164.22 557.4C164.74 557.4 165.203 557.513 165.61 557.74C166.016 557.967 166.333 558.287 166.56 558.7C166.786 559.107 166.9 559.577 166.9 560.11ZM165.71 559.75C165.703 559.33 165.553 558.993 165.26 558.74C164.966 558.487 164.603 558.36 164.17 558.36C163.776 558.36 163.44 558.487 163.16 558.74C162.88 558.987 162.713 559.323 162.66 559.75H165.71ZM167.641 560.24C167.641 559.673 167.755 559.177 167.981 558.75C168.215 558.317 168.535 557.983 168.941 557.75C169.348 557.517 169.815 557.4 170.341 557.4C171.008 557.4 171.558 557.56 171.991 557.88C172.431 558.193 172.728 558.643 172.881 559.23H171.651C171.551 558.957 171.391 558.743 171.171 558.59C170.951 558.437 170.675 558.36 170.341 558.36C169.875 558.36 169.501 558.527 169.221 558.86C168.948 559.187 168.811 559.647 168.811 560.24C168.811 560.833 168.948 561.297 169.221 561.63C169.501 561.963 169.875 562.13 170.341 562.13C171.001 562.13 171.438 561.84 171.651 561.26H172.881C172.721 561.82 172.421 562.267 171.981 562.6C171.541 562.927 170.995 563.09 170.341 563.09C169.815 563.09 169.348 562.973 168.941 562.74C168.535 562.5 168.215 562.167 167.981 561.74C167.755 561.307 167.641 560.807 167.641 560.24ZM175.348 558.42V561.47C175.348 561.677 175.394 561.827 175.488 561.92C175.588 562.007 175.754 562.05 175.988 562.05H176.688V563H175.788C175.274 563 174.881 562.88 174.608 562.64C174.334 562.4 174.198 562.01 174.198 561.47V558.42H173.548V557.49H174.198V556.12H175.348V557.49H176.688V558.42H175.348Z" fill="white"/>
<defs>
<filter id="filter0_d_0_233" x="381" y="0" width="313" height="334" filterUnits="userSpaceOnUse" color-interpolation-filters="sRGB">
<feFlood flood-opacity="0" result="BackgroundImageFix"/>
<feColorMatrix in="SourceAlpha" type="matrix" values="0 0 0 0 0 0 0 0 0 0 0 0 0 0 0 0 0 0 127 0" result="hardAlpha"/>
<feOffset dy="10"/>
<feGaussianBlur stdDeviation="47"/>
<feColorMatrix type="matrix" values="0 0 0 0 0.799942 0 0 0 0 0.799942 0 0 0 0 0.799942 0 0 0 0.25 0"/>
<feBlend mode="normal" in2="BackgroundImageFix" result="effect1_dropShadow_0_233"/>
<feBlend mode="normal" in="SourceGraphic" in2="effect1_dropShadow_0_233" result="shape"/>
</filter>
<filter id="filter1_d_0_233" x="0" y="353" width="311" height="342" filterUnits="userSpaceOnUse" color-interpolation-filters="sRGB">
<feFlood flood-opacity="0" result="BackgroundImageFix"/>
<feColorMatrix in="SourceAlpha" type="matrix" values="0 0 0 0 0 0 0 0 0 0 0 0 0 0 0 0 0 0 127 0" result="hardAlpha"/>
<feOffset dy="10"/>
<feGaussianBlur stdDeviation="47"/>
<feColorMatrix type="matrix" values="0 0 0 0 0.799942 0 0 0 0 0.799942 0 0 0 0 0.799942 0 0 0 0.25 0"/>
<feBlend mode="normal" in2="BackgroundImageFix" result="effect1_dropShadow_0_233"/>
<feBlend mode="normal" in="SourceGraphic" in2="effect1_dropShadow_0_233" result="shape"/>
</filter>
</defs>
</svg>
