<svg width="48" height="18" viewBox="0 0 48 18" fill="none" xmlns="http://www.w3.org/2000/svg">
<path d="M9.52502 2.28748L11.0775 6.57748L15.6375 6.72748C16.1175 6.74248 16.32 7.34998 15.9375 7.64998L12.3375 10.4475L13.605 14.8275C13.74 15.2925 13.2225 15.6675 12.825 15.3975L9.05252 12.84L5.28002 15.3975C4.88252 15.6675 4.36502 15.2925 4.50002 14.8275L5.76752 10.4475L2.15252 7.64998C1.77002 7.35748 1.97252 6.74248 2.45252 6.72748L7.01252 6.57748L8.56502 2.28748C8.72252 1.83748 9.36002 1.83748 9.52502 2.28748Z" fill="#01A3C2"/>
<path d="M26.644 13.872V12.668L31.348 5.92H33.28V12.486H34.582V13.872H33.28V16H31.712V13.872H26.644ZM31.782 7.544L28.478 12.486H31.782V7.544ZM36.7585 16.098C36.4691 16.098 36.2265 16 36.0305 15.804C35.8345 15.608 35.7365 15.3653 35.7365 15.076C35.7365 14.7867 35.8345 14.544 36.0305 14.348C36.2265 14.152 36.4691 14.054 36.7585 14.054C37.0385 14.054 37.2765 14.152 37.4725 14.348C37.6685 14.544 37.7665 14.7867 37.7665 15.076C37.7665 15.3653 37.6685 15.608 37.4725 15.804C37.2765 16 37.0385 16.098 36.7585 16.098ZM41.2694 13.228C41.3627 13.6947 41.5634 14.0493 41.8714 14.292C42.1794 14.5347 42.5947 14.656 43.1174 14.656C43.7801 14.656 44.2654 14.3947 44.5734 13.872C44.8814 13.3493 45.0354 12.458 45.0354 11.198C44.8114 11.5153 44.4941 11.7627 44.0834 11.94C43.6821 12.108 43.2434 12.192 42.7674 12.192C42.1607 12.192 41.6101 12.0707 41.1154 11.828C40.6207 11.576 40.2287 11.2073 39.9394 10.722C39.6594 10.2273 39.5194 9.63 39.5194 8.93C39.5194 7.90333 39.8181 7.08667 40.4154 6.48C41.0221 5.864 41.8527 5.556 42.9074 5.556C44.1767 5.556 45.0774 5.98067 45.6094 6.83C46.1507 7.67 46.4214 8.96267 46.4214 10.708C46.4214 11.912 46.3187 12.8967 46.1134 13.662C45.9174 14.4273 45.5721 15.006 45.0774 15.398C44.5827 15.79 43.8967 15.986 43.0194 15.986C42.0207 15.986 41.2507 15.7247 40.7094 15.202C40.1681 14.6793 39.8647 14.0213 39.7994 13.228H41.2694ZM43.0474 10.848C43.6074 10.848 44.0461 10.6753 44.3634 10.33C44.6901 9.97533 44.8534 9.50867 44.8534 8.93C44.8534 8.286 44.6807 7.78667 44.3354 7.432C43.9994 7.068 43.5374 6.886 42.9494 6.886C42.3614 6.886 41.8947 7.07267 41.5494 7.446C41.2134 7.81 41.0454 8.29067 41.0454 8.888C41.0454 9.45733 41.2087 9.92867 41.5354 10.302C41.8714 10.666 42.3754 10.848 43.0474 10.848Z" fill="#01A3C2"/>
</svg>
